<svg width="160" height="160" viewBox="0 0 160 160" fill="none" xmlns="http://www.w3.org/2000/svg">
<g clip-path="url(#clip0_101_56)">
<path fill-rule="evenodd" clip-rule="evenodd" d="M68.7087 5.6807L71.2387 8.88426L72.4444 8.70493L69.7845 5.40173C70.87 4.93605 71.4892 4.05793 71.2916 2.76544C71.0303 1.04181 69.7245 0.61628 68.0414 0.872203L65.4294 1.27102L66.6804 9.57365L67.7442 9.41299L67.2137 5.90499L68.7087 5.6807ZM68.4802 4.83177L67.0865 5.04273L66.6255 1.95822L68.0192 1.74726C69.3117 1.54963 70.077 1.83345 70.2412 2.92432C70.4028 3.99495 69.7727 4.63414 68.4802 4.83177ZM55.6816 3.70118L60.3338 2.36765L60.5775 3.2283L56.958 4.26793L57.6831 6.80263L60.7337 5.92718L60.986 6.80044L57.9355 7.67589L58.7747 10.6076L62.5139 9.53847L62.7662 10.4117L57.9885 11.7824L55.6816 3.70118ZM46.4803 7.25425L45.447 7.69931L51.2022 14.3789L52.3467 13.8917L51.4937 5.11776L50.4924 5.54488L51.0349 10.2393C51.17 11.2654 51.2775 12.0822 51.3856 13.1118L51.3401 13.1315C50.9214 12.6386 50.5668 12.1997 50.1967 11.7418L50.1962 11.7411L50.1955 11.7403C49.9769 11.4698 49.753 11.1926 49.5072 10.8937L46.4803 7.25425ZM37.6706 12.0057L41.8467 9.56055L42.2985 10.332L39.046 12.2298L40.3758 14.5063L43.1176 12.9024L43.5779 13.6865L40.8362 15.2904L42.3777 17.9236L45.7378 15.9567L46.1982 16.7408L41.9067 19.2492L37.6706 12.0057ZM29.1215 18.1648L28.2561 18.8419L33.4449 25.4449L34.2414 24.8182L31.5274 21.3641C31.0901 20.8122 30.6175 20.2865 30.1594 19.777C30.0394 19.6435 29.9205 19.5112 29.8034 19.3799L29.848 19.3534L31.6284 20.1491L37.2787 22.4337L38.1442 21.7566L32.9553 15.1536L32.1588 15.7803L34.8397 19.1907C35.2435 19.7032 35.7078 20.2153 36.151 20.7041L36.1511 20.7042L36.1512 20.7044L36.1516 20.7048L36.1529 20.7062L36.1537 20.7071L36.1539 20.7073C36.3069 20.8761 36.4573 21.042 36.6018 21.2043L36.5649 21.2366L34.776 20.4283L29.1215 18.1648ZM26.3309 32.4934L22.3148 31.7723L21.3478 32.9297L24.071 35.2013L23.3831 36.0267L16.9338 30.6472L18.6248 28.6253C19.7167 27.321 20.9764 26.7706 22.3113 27.8859C23.3141 28.7221 23.4343 29.7913 22.9354 30.8528L27.1144 31.5593L26.3309 32.4934ZM20.677 32.3725L21.5786 31.2924C22.4149 30.2895 22.4622 29.3974 21.6283 28.6969C20.7801 27.9913 20.016 28.2911 19.1865 29.293L18.2849 30.3731L20.677 32.3725ZM13.8545 34.8502L11.2607 38.9343L18.3435 43.4407L21.0059 39.2514L20.2409 38.7615L18.1528 42.0443L15.5824 40.4118L17.2826 37.7295L16.5176 37.2396L14.8175 39.9219L12.5914 38.505L14.6109 35.3274L13.8545 34.8502ZM6.25841 48.7194L6.74241 47.7012L11.4164 48.4112C11.8589 48.4798 12.2596 48.5475 12.6537 48.6141C13.1772 48.7026 13.6891 48.7892 14.2721 48.8731L14.2938 48.829C13.764 48.3419 13.2983 47.9336 12.8005 47.4972L12.8005 47.4971L12.7998 47.4965L12.7987 47.4956C12.5849 47.3082 12.3652 47.1155 12.132 46.9092L8.6125 43.7535L9.08069 42.7717L15.5289 48.7694L14.9966 49.8902L6.25841 48.7194ZM4.79675 52.4828L3.28643 57.0767L11.2614 59.7008L12.8106 54.985L11.9491 54.7002L10.7327 58.3969L7.8399 57.4455L8.83021 54.4309L7.96863 54.146L6.97833 57.1607L4.47319 56.3368L5.65068 52.7619L4.79675 52.4828ZM10.0117 64.6037L6.14921 65.9363L5.87095 67.4219L9.35719 68.0823L9.15973 69.1384L0.904498 67.5676L1.39424 64.976C1.70926 63.3001 2.54071 62.2086 4.25212 62.5327C5.53399 62.776 6.16379 63.6476 6.24328 64.8252L10.2387 63.4064L10.0117 64.6037ZM5.01773 67.2527L5.28143 65.8651C5.5247 64.5833 5.13011 63.7768 4.05963 63.5744C2.97566 63.3737 2.45362 63.9987 2.21123 65.2873L1.94754 66.6749L5.01773 67.2527ZM-0.0690465 76.2936C-0.162511 78.4004 1.3948 79.9534 4.08197 80.0735C6.78175 80.185 8.53336 78.7801 8.62007 76.6742C8.71532 74.5809 7.09548 73.0224 4.39481 72.9041C1.72202 72.789 0.0253059 74.1935 -0.0690465 76.2936ZM0.862679 76.3289C0.927232 74.8371 2.26053 73.9061 4.34621 73.9955C6.44628 74.0899 7.75787 75.1327 7.68657 76.6254C7.62468 78.1375 6.22885 79.0629 4.12878 78.9686C2.0431 78.8792 0.793153 77.8351 0.862679 76.3289ZM0.0686001 84.0629L0.498839 88.8958L8.85462 88.1528L8.76146 87.08L5.01488 87.4153L4.7322 84.2249L3.84347 84.3076L4.12615 87.498L1.29529 87.7471L0.958216 83.987L0.0686001 84.0629ZM83.3789 0.947502L80.8353 0.822273L80.8827 -0.0698393L87.0344 0.232771L86.987 1.12488L84.4434 0.999652L84.0702 8.4929L83.0057 8.44075L83.3789 0.947502ZM96.5437 1.67967L91.7827 0.830003L90.315 9.0854L95.2028 9.95957L95.3599 9.06674L91.5273 8.38328L92.06 5.3877L95.1824 5.94491L95.3396 5.05208L92.2172 4.49487L92.679 1.90004L96.3848 2.559L96.5437 1.67967ZM101.707 2.9228L102.913 3.32027L103.035 8.11122L103.068 9.9267L103.118 9.94073L104.219 8.49786L107.171 4.73061L108.362 5.12311L105.71 13.0949L104.748 12.7752L106.203 8.38775C106.403 7.79232 106.716 7.0446 106.981 6.41061C107.03 6.29482 107.077 6.18282 107.121 6.07623L107.071 6.0622L105.848 7.6241L102.931 11.2839L102.35 11.0926L102.201 6.41499L102.159 4.42898L102.109 4.41495C102.08 4.52635 102.05 4.64388 102.018 4.7656C101.847 5.42862 101.644 6.21607 101.45 6.81598L99.9949 11.2034L99.0614 10.8937L101.707 2.9228ZM115.901 8.55312L113.591 7.38761L109.819 14.882L110.775 15.3672L112.273 12.3957L113.619 13.0769C115.253 13.9056 116.761 13.7277 117.556 12.1534C118.383 10.5063 117.557 9.39271 115.901 8.55312ZM116.607 11.674C116.068 12.7408 115.203 12.9027 113.886 12.2382L112.665 11.6162L114.168 8.63709L115.389 9.25235C116.683 9.90597 117.157 10.5852 116.607 11.674ZM120.247 15.6929C121.783 13.4854 123.931 13.0035 125.662 14.2108C127.386 15.4123 127.661 17.6079 126.13 19.801C124.588 22.0161 122.4 22.5514 120.676 21.35C118.958 20.1409 118.705 17.908 120.247 15.6929ZM125.237 19.17C126.433 17.4605 126.364 15.8353 125.132 14.9811C123.892 14.1143 122.343 14.6134 121.147 16.3229C119.946 18.0468 119.981 19.7247 121.214 20.5856C122.453 21.4456 124.036 20.8939 125.237 19.17ZM131.081 25.0069L130.147 28.9754L131.032 29.7998L131.964 25.6666C133 26.2307 134.076 26.1645 134.967 25.2095C136.152 23.9341 135.674 22.6511 134.429 21.4896L132.503 19.6898L126.781 25.8339L127.564 26.5686L129.977 23.9779L131.081 25.0069ZM131.605 24.2924L130.573 23.3364L132.703 21.0507L133.735 22.0067C134.69 22.8973 134.943 23.6743 134.191 24.4807C133.451 25.2785 132.56 25.183 131.605 24.2924ZM137.969 33.879L136.017 31.5195L133.528 32.5341L132.834 31.6983L141.118 28.5338L141.886 29.4628L137.227 37.0052L136.509 36.1383L137.969 33.879ZM138.461 33.1276L139.193 32.008C139.723 31.1828 140.264 30.3905 140.842 29.5659L140.81 29.5289C139.889 29.9454 139.005 30.3227 138.099 30.6893L136.853 31.1898L138.461 33.1276ZM143.539 40.0887L141.609 43.6871L142.245 44.709L144.216 40.9541C145.07 41.7618 146.129 41.9795 147.233 41.2848C148.711 40.3622 148.58 38.9992 147.675 37.5526L146.276 35.3196L139.157 39.7728L139.73 40.6862L142.738 38.8069L143.539 40.0887ZM144.222 39.5387L143.474 38.346L146.126 36.6853L146.873 37.8779C147.562 38.989 147.608 39.807 146.675 40.3899C145.748 40.9652 144.916 40.6421 144.222 39.5387ZM147.449 47.8351L151.043 43.3652L151.53 44.4067L149.84 46.3804L149.714 46.524C149.317 46.9771 148.932 47.4172 148.529 47.899L148.549 47.9444C148.799 47.9416 149.046 47.9419 149.292 47.9422L149.292 47.9422C149.718 47.9427 150.138 47.9432 150.559 47.9271L153.166 47.9134L153.634 48.9094L147.906 48.7982L144.962 50.1679L144.512 49.2038L147.449 47.8351ZM153.668 59.9613C153.467 59.2186 152.689 58.7372 151.801 58.9778C150.912 59.2184 150.489 60.0226 150.69 60.7653C150.891 61.508 151.655 61.9911 152.544 61.7505C153.432 61.51 153.869 60.704 153.668 59.9613ZM159.279 70.6633L159.723 75.4943L158.834 75.577L158.491 71.8178L155.661 72.0736L155.95 75.2631L155.061 75.3458L154.772 72.1563L151.026 72.4983L150.926 71.4265L159.279 70.6633ZM159.881 83.2611C159.966 81.1484 158.403 79.6031 155.717 79.4898C153.017 79.3782 151.267 80.7899 151.187 82.9017C151.1 85.0008 152.726 86.5517 155.425 86.6632C158.097 86.7716 159.793 85.3603 159.881 83.2611ZM158.942 83.2267C158.884 84.7177 157.551 85.6486 155.466 85.566C153.374 85.4775 152.056 84.4355 152.113 82.9446C152.176 81.4393 153.571 80.5071 155.67 80.5947C157.755 80.6773 159.004 81.7147 158.942 83.2267ZM149.825 94.982L153.68 93.6436L153.958 92.158L150.473 91.5111L150.671 90.455L158.922 91.992L158.439 94.5828C158.124 96.2587 157.299 97.3492 155.588 97.0319C154.307 96.7954 153.677 95.917 153.591 94.7471L149.605 96.1784L149.825 94.982ZM154.81 92.3204L154.553 93.7071C154.317 94.9881 154.711 95.7946 155.781 95.9902C156.865 96.1909 157.386 95.5592 157.623 94.2782L157.88 92.8915L154.81 92.3204ZM155.083 107.063L156.579 102.464L148.578 99.857L147.044 104.578L147.912 104.862L149.114 101.16L152.013 102.104L151.03 105.124L151.898 105.408L152.881 102.388L155.392 103.204L154.229 106.784L155.083 107.063ZM153.619 110.868L153.142 111.885L148.462 111.183C148.055 111.12 147.682 111.057 147.318 110.996C146.762 110.903 146.224 110.812 145.607 110.728L145.586 110.772C146.226 111.36 146.772 111.834 147.399 112.376C147.514 112.476 147.632 112.578 147.753 112.684L151.279 115.832L150.818 116.82L144.351 110.831L144.882 109.704L153.619 110.868ZM146.039 124.756L148.626 120.666L141.533 116.188L138.878 120.383L139.649 120.865L141.729 117.577L144.306 119.208L142.606 121.891L143.37 122.374L145.071 119.691L147.296 121.102L145.283 124.278L146.039 124.756ZM133.58 127.138L137.601 127.844L138.567 126.68L135.838 124.416L136.526 123.591L142.987 128.955L141.304 130.983C140.219 132.293 138.96 132.843 137.619 131.736C136.616 130.899 136.489 129.831 136.988 128.77L132.804 128.077L133.58 127.138ZM139.232 127.245L138.331 128.332C137.495 129.335 137.455 130.233 138.288 130.926C139.137 131.632 139.901 131.332 140.73 130.33L141.631 129.243L139.232 127.245ZM130.813 141.484L131.677 140.8L126.477 134.212L125.68 134.839L128.4 138.285C128.821 138.824 129.284 139.337 129.733 139.835C129.865 139.981 129.996 140.126 130.124 140.269L130.087 140.302L128.3 139.507L122.644 137.23L121.779 137.914L126.981 144.508L127.777 143.882L125.09 140.472C124.688 139.97 124.232 139.467 123.796 138.986L123.795 138.985C123.633 138.806 123.473 138.631 123.321 138.459L123.364 138.426L125.152 139.228L130.813 141.484ZM122.285 147.647L118.109 150.099L117.658 149.327L120.902 147.424L119.566 145.148L116.832 146.758L116.371 145.974L119.105 144.364L117.565 141.737L114.212 143.71L113.752 142.926L118.036 140.412L122.285 147.647ZM113.496 152.409L114.53 151.964L108.755 145.294L107.612 145.788L108.485 154.559L109.486 154.132L108.93 149.439C108.907 149.263 108.884 149.093 108.862 148.928L108.862 148.927C108.756 148.124 108.662 147.422 108.573 146.568L108.618 146.548C109.003 146.996 109.33 147.4 109.665 147.813C109.916 148.122 110.171 148.436 110.457 148.778L113.496 152.409ZM104.292 155.99L99.6408 157.33L99.3902 156.471L103.002 155.425L102.27 152.891L99.2206 153.774L98.9683 152.9L102.018 152.018L101.173 149.094L97.4345 150.17L97.1822 149.297L101.952 147.92L104.292 155.99ZM91.2695 154.044L88.7336 150.848L87.5347 151.027L90.2005 154.322C89.1208 154.78 88.5025 155.665 88.7001 156.958C88.9681 158.681 90.2731 159.099 91.9562 158.843L94.5615 158.446L93.2902 150.146L92.2263 150.306L92.7636 153.813L91.2695 154.044ZM91.4971 154.887L92.8908 154.676L93.3663 157.765L91.9725 157.976C90.68 158.174 89.908 157.891 89.7438 156.8C89.5813 155.722 90.2046 155.084 91.4971 154.887ZM76.5972 158.812L79.1409 158.937L79.1012 159.835L72.9503 159.54L72.9901 158.642L75.5337 158.767L75.8925 151.269L76.957 151.321L76.5972 158.812ZM63.4369 158.114L68.2029 158.949L69.6562 150.689L64.7634 149.829L64.6063 150.722L68.438 151.398L67.913 154.4L64.7847 153.85L64.6275 154.743L67.7558 155.293L67.3007 157.887L63.5958 157.234L63.4369 158.114ZM58.2888 156.882L57.0828 156.485L56.9467 151.696L56.9137 149.88L56.8638 149.866L55.7694 151.308L52.8257 155.081L51.634 154.689L54.2581 146.714L55.2204 147.034L53.7721 151.42C53.5935 151.966 53.3125 152.645 53.0647 153.244L53.0647 153.244C52.9931 153.417 52.9244 153.583 52.8617 153.738L52.9116 153.752L54.1267 152.184L57.0298 148.519L57.6112 148.71L57.7668 153.387L57.8153 155.372L57.8652 155.386C57.9035 155.239 57.944 155.081 57.986 154.917L57.9874 154.911L57.9881 154.908L57.9882 154.908C58.1504 154.274 58.3361 153.548 58.5175 152.986L59.9658 148.6L60.8993 148.909L58.2888 156.882ZM44.057 151.278L46.3658 152.436L50.1449 144.941L49.1816 144.457L47.6843 147.428L46.3379 146.747C44.6984 145.926 43.1963 146.096 42.4018 147.677C41.5681 149.325 42.4022 150.445 44.057 151.278ZM43.3432 148.151C43.8767 147.092 44.748 146.929 46.0639 147.587L47.2839 148.195L45.7817 151.181L44.5607 150.566C43.2737 149.918 42.7997 149.239 43.3432 148.151ZM39.7068 144.159C38.1774 146.366 36.0305 146.854 34.2931 145.655C32.5701 144.46 32.2813 142.266 33.8047 140.067C35.3458 137.845 37.527 137.304 39.25 138.499C40.9883 139.705 41.2478 141.937 39.7068 144.159ZM34.7116 140.696C33.5228 142.412 33.5993 144.036 34.8235 144.884C36.0629 145.744 37.611 145.245 38.7999 143.53C39.9946 141.807 39.9591 140.129 38.7196 139.269C37.4946 138.414 35.9122 138.966 34.7116 140.696ZM28.8344 134.864L29.7669 130.888L28.8833 130.071L27.9586 134.21C26.9238 133.653 25.8475 133.719 24.9569 134.674C23.7719 135.949 24.2499 137.232 25.5014 138.393L27.4336 140.185L33.1469 134.028L32.3567 133.294L29.9449 135.892L28.8344 134.864ZM28.323 135.57L29.3554 136.526L27.2329 138.817L26.2006 137.861C25.2455 136.971 24.9854 136.195 25.7376 135.388C26.4773 134.59 27.368 134.679 28.323 135.57ZM21.9489 126.012L23.9067 128.364L26.3897 127.35L27.0834 128.186L18.8086 131.37L18.0408 130.441L22.6776 122.887L23.396 123.754L21.9489 126.012ZM21.4582 126.77L20.7274 127.896C20.1974 128.721 19.6629 129.513 19.0857 130.344L19.118 130.381C20.0383 129.965 20.915 129.582 21.828 129.214L23.0738 128.714L21.4582 126.77ZM16.3614 119.825L18.2836 116.221L17.6325 115.187L15.6759 118.947C14.821 118.14 13.7631 117.929 12.6597 118.623C11.1887 119.552 11.3277 120.921 12.2315 122.36L13.6378 124.593L20.7396 120.114L20.167 119.207L17.1678 121.099L16.3614 119.825ZM15.6852 120.374L16.4328 121.567L13.7886 123.234L13.041 122.041C12.3463 120.938 12.3004 120.119 13.2323 119.53C14.1515 118.949 14.9905 119.271 15.6852 120.374ZM12.4299 112.075L8.84383 116.55L8.35648 115.509L10.0469 113.535L10.1727 113.392C10.5697 112.938 10.9552 112.498 11.3578 112.017L11.3381 111.971C11.1117 111.974 10.888 111.974 10.6661 111.974L10.6645 111.974L10.6643 111.974C10.2145 111.974 9.77197 111.974 9.32917 111.995L6.7223 112.016L6.25468 111.02L11.982 111.124L14.9254 109.748L15.3751 110.712L12.4299 112.075ZM6.17251 99.9674C6.3733 100.71 7.15673 101.184 8.04527 100.943C8.93381 100.703 9.34996 99.8993 9.15006 99.1634C8.94927 98.4207 8.17846 97.9385 7.28992 98.179C6.40138 98.4196 5.97173 99.2247 6.17251 99.9674Z" fill="white"/>
<path d="M81.3489 77.5977C82.1291 76.1867 83.2236 74.4656 84.8338 74.0342C87.1043 73.4258 89.6453 74.6414 90.3334 77.2093C91.0214 79.7773 89.3859 82.1288 87.1624 82.7246C85.1894 83.2532 82.7857 81.5477 80.0458 79.9659C77.2821 78.3703 74.9492 76.666 72.8979 77.2156C70.5025 77.8574 69.0828 80.3267 69.7269 82.7308C70.3711 85.1349 72.8352 86.5635 75.2307 85.9216C76.8035 85.5002 77.764 83.971 78.6695 82.3493" stroke="white" stroke-width="1.33333" stroke-linecap="round"/>
</g>
<defs>
<clipPath id="clip0_101_56">
<rect width="160" height="160" fill="white"/>
</clipPath>
</defs>
</svg>
