<svg width="96" height="96" viewBox="0 0 96 96" fill="none" xmlns="http://www.w3.org/2000/svg">
<path d="M48 0L53.9932 17.8703L66.3688 3.65378L65.0671 22.4573L81.9411 14.0589L73.5427 30.9329L92.3462 29.6312L78.1297 42.0068L96 48L78.1297 53.9932L92.3462 66.3688L73.5427 65.0671L81.9411 81.9411L65.0671 73.5427L66.3688 92.3462L53.9932 78.1297L48 96L42.0068 78.1297L29.6312 92.3462L30.9329 73.5427L14.0589 81.9411L22.4573 65.0671L3.65378 66.3688L17.8703 53.9932L0 48L17.8703 42.0068L3.65378 29.6312L22.4573 30.9329L14.0589 14.0589L30.9329 22.4573L29.6312 3.65378L42.0068 17.8703L48 0Z" stroke="white" stroke-width="3" stroke-linejoin="round"/>
</svg>
