<svg width="240" height="240" viewBox="0 0 240 240" fill="none" xmlns="http://www.w3.org/2000/svg">
<g clip-path="url(#clip0_2_484)">
<path fill-rule="evenodd" clip-rule="evenodd" d="M103.063 8.52103L106.858 13.3264L108.667 13.0574L104.677 8.10257C106.305 7.40406 107.234 6.08688 106.938 4.14814C106.546 1.5627 104.587 0.924402 102.062 1.30829L98.1443 1.90651L100.021 14.3605L101.617 14.1195L100.821 8.85746L103.063 8.52103ZM102.721 7.24764L100.63 7.56408L99.9384 2.93731L102.029 2.62087C103.968 2.32443 105.116 2.75015 105.362 4.38646C105.604 5.9924 104.659 6.9512 102.721 7.24764ZM83.5227 5.55174L90.5009 3.55145L90.8666 4.84243L85.4373 6.40188L86.525 10.2039L91.1008 8.89074L91.4793 10.2006L86.9034 11.5138L88.1623 15.9114L93.7711 14.3077L94.1496 15.6176L86.983 17.6736L83.5227 5.55174ZM69.7208 10.8813L68.1708 11.5489L76.8035 21.5683L78.5203 20.8375L77.2408 7.67662L75.7388 8.3173L76.5526 15.359C76.7552 16.898 76.9165 18.1232 77.0786 19.6676L77.0104 19.6972C76.3824 18.9579 75.8504 18.2996 75.2953 17.6126L75.2949 17.6121C74.9666 17.2058 74.6302 16.7895 74.2611 16.3405L69.7208 10.8813ZM56.5061 18.0085L62.7703 14.3408L63.448 15.498L58.5693 18.3447L60.564 21.7595L64.6766 19.3536L65.3671 20.5297L61.2545 22.9356L63.5668 26.8854L68.607 23.9351L69.2975 25.1112L62.8603 28.8738L56.5061 18.0085ZM43.6826 27.2472L42.3844 28.2628L50.1677 38.1674L51.3624 37.2272L47.2913 32.0462C46.6354 31.2183 45.9264 30.4297 45.2393 29.6654C45.0594 29.4653 44.881 29.2668 44.7054 29.0698L44.7722 29.03L47.4428 30.2236L55.9183 33.6505L57.2165 32.6349L49.4332 22.7303L48.2385 23.6705L52.2598 28.786C52.8656 29.5548 53.5621 30.3231 54.2268 31.0563L54.2269 31.0564C54.4578 31.3111 54.6849 31.5616 54.903 31.8064L54.8476 31.8549L52.1642 30.6424L43.6826 27.2472ZM39.4966 48.7401L33.4724 47.6584L32.0219 49.3945L36.1068 52.802L35.0748 54.04L25.401 45.9707L27.9374 42.9379C29.5752 40.9815 31.4649 40.1558 33.4672 41.8288C34.9715 43.0832 35.1517 44.687 34.4033 46.2791L40.6719 47.3389L39.4966 48.7401ZM31.0157 48.5587L32.3682 46.9385C33.6226 45.4343 33.6936 44.0961 32.4428 43.0453C31.1703 41.987 30.0243 42.4366 28.7801 43.9395L27.4276 45.5597L31.0157 48.5587ZM20.7819 52.2752L16.8913 58.4014L27.5155 65.161L31.509 58.8771L30.3616 58.1423L27.2295 63.0664L23.3739 60.6177L25.9241 56.5942L24.7767 55.8594L22.2264 59.8828L18.8873 57.7575L21.9166 52.9911L20.7819 52.2752ZM9.38787 73.0792L10.1139 71.5517L17.1248 72.6168C17.7885 72.7196 18.3895 72.8212 18.9805 72.9211C19.7659 73.0539 20.5338 73.1837 21.4084 73.3096L21.4409 73.2435C20.6465 72.513 19.948 71.9006 19.2015 71.2461L19.2013 71.246L19.2012 71.2459L19.201 71.2457L19.2006 71.2453C18.8792 70.9636 18.5489 70.674 18.1982 70.3638L12.919 65.6303L13.6213 64.1575L23.2936 73.1541L22.4952 74.8352L9.38787 73.0792ZM7.19536 78.7242L4.92988 85.6151L16.8924 89.5512L19.2162 82.4775L17.9238 82.0502L16.0992 87.5954L11.7601 86.1683L13.2456 81.6463L11.9532 81.219L10.4677 85.741L6.71003 84.5051L8.47627 79.1428L7.19536 78.7242ZM15.0178 96.9056L9.22406 98.9044L8.80667 101.133L14.036 102.123L13.7398 103.708L1.35699 101.351L2.09161 97.4639C2.56413 94.9501 3.81131 93.3129 6.37843 93.799C8.30123 94.1639 9.24592 95.4714 9.36516 97.2377L15.3582 95.1096L15.0178 96.9056ZM7.52685 100.879L7.92239 98.7977C8.2873 96.8749 7.69541 95.6652 6.0897 95.3616C4.46373 95.0606 3.68067 95.998 3.3171 97.931L2.92155 100.012L7.52685 100.879ZM-0.10332 114.44C-0.243516 117.601 2.09244 119.93 6.1232 120.11C10.1729 120.278 12.8003 118.17 12.9304 115.011C13.0732 111.871 10.6435 109.534 6.59246 109.356C2.58329 109.183 0.0382086 111.29 -0.10332 114.44ZM1.29427 114.493C1.3911 112.256 3.39105 110.859 6.51957 110.993C9.66967 111.135 11.6371 112.699 11.5301 114.938C11.4373 117.206 9.34353 118.594 6.19343 118.453C3.06491 118.319 1.18998 116.753 1.29427 114.493ZM0.103145 126.094L0.748504 133.344L13.2822 132.229L13.1424 130.62L7.52256 131.123L7.09854 126.337L5.76545 126.461L6.18947 131.247L1.94319 131.621L1.43757 125.98L0.103145 126.094ZM125.069 1.42123L121.253 1.23339L121.324 -0.104782L130.552 0.349133L130.481 1.6873L126.665 1.49946L126.105 12.7393L124.509 12.6611L125.069 1.42123ZM144.816 2.51948L137.674 1.24498L135.473 13.6281L142.804 14.9393L143.04 13.6001L137.291 12.5749L138.09 8.08152L142.774 8.91734L143.01 7.57809L138.326 6.74227L139.019 2.85004L144.577 3.83847L144.816 2.51948ZM152.56 4.38418L154.369 4.98039L154.553 12.1668L154.602 14.89L154.677 14.9111L156.329 12.7468L160.756 7.09589L162.544 7.68463L158.566 19.6423L157.122 19.1628L159.305 12.5816C159.605 11.6885 160.075 10.567 160.472 9.61605L160.473 9.61576L160.475 9.61064C160.547 9.43881 160.616 9.27259 160.682 9.11433L160.607 9.09328L158.773 11.4361L154.397 16.9258L153.525 16.6389L153.301 9.62247L153.239 6.64345L153.164 6.6224C153.12 6.78928 153.075 6.96531 153.028 7.14762C152.771 8.1423 152.466 9.32386 152.175 10.224L149.993 16.8051L148.592 16.3405L152.56 4.38418ZM173.852 12.8297L170.387 11.0814L164.728 22.323L166.163 23.0508L168.409 18.5936L170.429 19.6153C172.879 20.8585 175.141 20.5916 176.334 18.2301C177.575 15.7594 176.335 14.089 173.852 12.8297ZM174.911 17.511C174.102 19.1112 172.805 19.354 170.83 18.3573L168.997 17.4243L171.252 12.9556L173.083 13.8785C175.025 14.8589 175.736 15.8778 174.911 17.511ZM180.37 23.5393C182.675 20.2281 185.896 19.5053 188.494 21.3162C191.079 23.1184 191.492 26.4118 189.196 29.7014C186.883 33.0241 183.6 33.8271 181.014 32.025C178.437 30.2114 178.058 26.862 180.37 23.5393ZM187.856 28.755C189.65 26.1908 189.546 23.7529 187.698 22.4716C185.838 21.1715 183.515 21.9201 181.721 24.4844C179.919 27.0702 179.972 29.587 181.821 30.8784C183.68 32.1684 186.054 31.3409 187.856 28.755ZM196.622 37.5103L195.221 43.4631L196.548 44.6997L197.947 38.4999C199.5 39.346 201.115 39.2468 202.451 37.8142C204.228 35.9012 203.511 33.9766 201.644 32.2343L198.755 29.5347L190.172 38.7509L191.347 39.8529L194.966 35.9668L196.622 37.5103ZM197.408 36.4386L195.859 35.0046L199.054 31.5761L200.603 33.0101C202.035 34.346 202.415 35.5115 201.287 36.721C200.177 37.9177 198.84 37.7745 197.408 36.4386ZM206.954 50.8185L204.026 47.2793L200.292 48.8011L199.251 47.5474L211.677 42.8006L212.829 44.1941L205.841 55.5077L204.763 54.2075L206.954 50.8185ZM207.692 49.6913L208.789 48.012C209.584 46.7742 210.396 45.5858 211.263 44.3488L211.215 44.2934C209.834 44.918 208.508 45.4841 207.148 46.0339L205.28 46.7847L207.692 49.6913ZM215.308 60.133L212.413 65.5306L213.367 67.0635L216.324 61.4311C217.606 62.6426 219.194 62.9692 220.849 61.9272C223.067 60.5433 222.87 58.4988 221.513 56.3288L219.414 52.9793L208.735 59.6592L209.596 61.0292L214.107 58.2103L215.308 60.133ZM216.332 59.308L215.211 57.519L219.189 55.0279L220.31 56.8168C221.343 58.4834 221.412 59.7105 220.013 60.5848C218.623 61.4477 217.374 60.9631 216.332 59.308ZM221.174 71.7526L226.565 65.0478L227.296 66.61L224.76 69.5706L224.571 69.7861C223.976 70.4658 223.398 71.1259 222.794 71.8484L222.824 71.9166C223.198 71.9123 223.568 71.9128 223.935 71.9133L223.937 71.9132L223.938 71.9132C224.577 71.914 225.207 71.9148 225.838 71.8906L229.75 71.87L230.451 73.364L221.859 73.1973L217.443 75.2518L216.768 73.8058L221.174 71.7526ZM230.502 89.9419C230.201 88.8278 229.034 88.1058 227.702 88.4667C226.369 88.8276 225.734 90.0339 226.036 91.1479C226.337 92.262 227.483 92.9867 228.816 92.6258C230.148 92.2649 230.803 91.0559 230.502 89.9419ZM238.919 105.995L239.585 113.241L238.252 113.365L237.736 107.727L233.491 108.11L233.925 112.895L232.592 113.019L232.158 108.234L226.539 108.747L226.39 107.14L238.919 105.995ZM239.821 124.892C239.95 121.723 237.605 119.405 233.576 119.235C229.526 119.067 226.9 121.185 226.781 124.352C226.65 127.501 229.089 129.828 233.138 129.995C237.146 130.157 239.69 128.04 239.821 124.892ZM238.413 124.84C238.327 127.076 236.327 128.473 233.2 128.349C230.061 128.216 228.084 126.653 228.17 124.417C228.264 122.159 230.357 120.761 233.506 120.892C236.633 121.016 238.506 122.572 238.413 124.84ZM224.737 142.473L230.52 140.465L230.937 138.237L225.71 137.267L226.007 135.682L238.383 137.988L237.658 141.874C237.186 144.388 235.949 146.024 233.383 145.548C231.461 145.193 230.515 143.876 230.387 142.121L224.407 144.268L224.737 142.473ZM232.216 138.481L231.83 140.561C231.475 142.482 232.067 143.692 233.672 143.985C235.298 144.286 236.079 143.339 236.434 141.417L236.82 139.337L232.216 138.481ZM232.624 160.594L234.868 153.696L222.868 149.785L220.566 156.867L221.868 157.293L223.671 151.74L228.019 153.156L226.545 157.686L227.848 158.112L229.322 153.582L233.088 154.806L231.343 160.176L232.624 160.594ZM230.429 166.302L229.713 167.828L222.694 166.774C222.082 166.679 221.524 166.586 220.977 166.494L220.977 166.494C220.143 166.354 219.337 166.219 218.411 166.091L218.379 166.158C219.339 167.04 220.158 167.75 221.098 168.564C221.271 168.714 221.448 168.867 221.63 169.026L226.918 173.748L226.227 175.229L216.526 166.247L217.323 164.556L230.429 166.302ZM219.059 187.133L222.939 180.998L212.299 174.282L208.317 180.575L209.474 181.298L212.594 176.365L216.46 178.812L213.91 182.836L215.056 183.561L217.606 179.537L220.944 181.652L217.925 186.417L219.059 187.133ZM200.37 190.706L206.402 191.766L207.851 190.02L203.757 186.624L204.789 185.386L214.481 193.432L211.956 196.474C210.329 198.439 208.44 199.265 206.428 197.603C204.924 196.349 204.734 194.747 205.482 193.154L199.206 192.116L200.37 190.706ZM208.848 190.867L207.497 192.498C206.243 194.002 206.183 195.349 207.433 196.39C208.705 197.448 209.851 196.998 211.095 195.495L212.446 193.865L208.848 190.867ZM196.219 212.225L197.516 211.2L189.715 201.318L188.52 202.258L192.6 207.428C193.232 208.236 193.927 209.006 194.6 209.752L194.74 209.906C194.815 209.99 194.89 210.073 194.964 210.156L195.077 210.281L195.186 210.404L195.131 210.453L192.45 209.26L183.966 205.845L182.669 206.871L190.471 216.763L191.666 215.822L187.635 210.708C187.032 209.954 186.348 209.2 185.694 208.479C185.45 208.211 185.211 207.947 184.981 207.689L185.047 207.639L187.729 208.842L196.219 212.225ZM183.427 221.47L177.164 225.148L176.487 223.991L181.354 221.136L179.349 217.722L175.248 220.137L174.557 218.961L178.658 216.546L176.347 212.606L171.319 215.565L170.628 214.389L177.054 210.618L183.427 221.47ZM170.245 228.614L171.795 227.946L163.133 217.941L161.418 218.682L162.727 231.839L164.229 231.198L163.395 224.159C163.361 223.894 163.327 223.64 163.294 223.391C163.134 222.186 162.994 221.132 162.859 219.852L162.927 219.822C163.504 220.494 163.995 221.099 164.497 221.718L164.498 221.719C164.874 222.183 165.256 222.655 165.686 223.167L170.245 228.614ZM156.438 233.985L149.461 235.996L149.086 234.706L154.503 233.138L153.406 229.337L148.831 230.66L148.453 229.35L153.027 228.027L151.76 223.641L146.152 225.255L145.774 223.945L152.929 221.88L156.438 233.985ZM136.904 231.067L133.101 226.273L131.302 226.54L135.301 231.484C133.681 232.171 132.754 233.498 133.05 235.437C133.452 238.021 135.41 238.649 137.935 238.265L141.842 237.668L139.936 225.218L138.34 225.459L139.146 230.72L136.904 231.067ZM137.246 232.33L139.337 232.013L140.05 236.648L137.959 236.964C136.02 237.26 134.862 236.836 134.616 235.2C134.372 233.584 135.307 232.626 137.246 232.33ZM114.896 238.218L118.712 238.406L118.652 239.753L109.426 239.309L109.485 237.962L113.301 238.15L113.839 226.903L115.436 226.981L114.896 238.218ZM95.1556 237.171L102.305 238.423L104.485 226.033L97.1454 224.743L96.9097 226.082L102.657 227.098L101.87 231.6L97.1773 230.775L96.9416 232.115L101.634 232.939L100.951 236.83L95.394 235.852L95.1556 237.171ZM87.4334 235.324L85.6244 234.727L85.4203 227.544L85.3708 224.82L85.2959 224.799L83.6544 226.962L79.2388 232.622L77.4513 232.033L81.3874 220.071L82.8309 220.55L80.6583 227.13C80.3905 227.949 79.9691 228.967 79.5975 229.866L79.5973 229.866L79.5965 229.868L79.5932 229.876L79.5888 229.887C79.4845 230.139 79.3843 230.381 79.2927 230.606L79.3676 230.627L81.1903 228.276L85.5449 222.779L86.4171 223.065L86.6505 230.081L86.7231 233.058L86.798 233.079C86.832 232.949 86.867 232.813 86.903 232.673L86.9804 232.37L86.9824 232.362C87.2258 231.411 87.5043 230.322 87.7765 229.479L89.949 222.899L91.3493 223.364L87.4334 235.324ZM66.0857 226.916L69.549 228.655L75.2177 217.412L73.7726 216.685L71.5267 221.142L69.5071 220.121C67.0478 218.889 64.7947 219.144 63.603 221.516C62.3524 223.988 63.6035 225.667 66.0857 226.916ZM65.015 222.226C65.8153 220.638 67.1223 220.393 69.096 221.38L70.9261 222.293L68.6727 226.772L66.8413 225.849C64.9107 224.877 64.1997 223.858 65.015 222.226ZM59.5604 216.238C57.2664 219.548 54.046 220.281 51.4399 218.482C48.8554 216.69 48.4221 213.399 50.7073 210.101C53.0189 206.768 56.2907 205.956 58.8752 207.748C61.4827 209.558 61.872 212.906 59.5604 216.238ZM52.0677 211.044C50.2845 213.617 50.3992 216.054 52.2355 217.326C54.0947 218.616 56.4168 217.868 58.2 215.295C59.9921 212.71 59.9389 210.194 58.0797 208.903C56.2421 207.621 53.8685 208.448 52.0677 211.044ZM43.2519 202.296L44.6506 196.333L43.3251 195.106L41.9381 201.315C40.3859 200.479 38.7715 200.578 37.4355 202.011C35.6581 203.924 36.375 205.848 38.2524 207.589L41.1506 210.277L49.7206 201.042L48.5353 199.942L44.9176 203.838L43.2519 202.296ZM42.4848 203.355L44.0333 204.789L40.8496 208.226L39.3011 206.792C37.8685 205.456 37.4783 204.292 38.6067 203.082C39.7162 201.886 41.0522 202.019 42.4848 203.355ZM32.9236 189.018L35.8603 192.545L39.5848 191.025L40.6254 192.279L28.2132 197.054L27.0615 195.661L34.0166 184.331L35.0942 185.631L32.9236 189.018ZM32.1875 190.155L31.0914 191.844C30.2964 193.082 29.4947 194.269 28.6288 195.516L28.6773 195.572C30.0577 194.947 31.3727 194.372 32.7423 193.821L34.6109 193.07L32.1875 190.155ZM24.5424 179.738L27.4256 174.331L26.4489 172.781L23.514 178.421C22.2317 177.209 20.6449 176.893 18.9898 177.935C16.7833 179.327 16.9918 181.381 18.3475 183.541L20.457 186.889L31.1096 180.171L30.2507 178.811L25.752 181.649L24.5424 179.738ZM23.528 180.561L24.6494 182.35L20.6831 184.85L19.5617 183.061C18.5197 181.406 18.4509 180.179 19.8487 179.295C21.2275 178.423 22.4861 178.906 23.528 180.561ZM18.6451 168.112L13.266 174.825L12.535 173.263L15.0707 170.303L15.2589 170.088C15.8545 169.408 16.433 168.748 17.037 168.025L17.0074 167.957C16.6671 167.961 16.3308 167.961 15.9971 167.961C15.3223 167.961 14.6583 167.961 13.994 167.993L10.0837 168.023L9.38226 166.53L17.9732 166.686L22.3883 164.622L23.0628 166.068L18.6451 168.112ZM9.25902 149.951C9.5602 151.065 10.7353 151.776 12.0681 151.415C13.401 151.054 14.0252 149.849 13.7253 148.745C13.4242 147.631 12.2679 146.908 10.9351 147.269C9.60232 147.629 8.95784 148.837 9.25902 149.951Z" fill="white"/>
<path d="M122.022 116.396C123.193 114.28 124.834 111.698 127.25 111.051C130.655 110.139 134.467 111.962 135.499 115.814C136.531 119.666 134.078 123.193 130.743 124.087C127.783 124.88 124.178 122.322 120.068 119.949C115.922 117.555 112.423 114.999 109.346 115.823C105.753 116.786 103.623 120.49 104.589 124.096C105.556 127.702 109.252 129.845 112.845 128.882C115.204 128.25 116.645 125.957 118.003 123.524" stroke="white" stroke-width="2" stroke-linecap="round"/>
</g>
<defs>
<clipPath id="clip0_2_484">
<rect width="240" height="240" fill="white"/>
</clipPath>
</defs>
</svg>
