<svg width="293.938477" height="293.938721" viewBox="0 0 293.938 293.939" fill="none" xmlns="http://www.w3.org/2000/svg" xmlns:xlink="http://www.w3.org/1999/xlink">
	<desc>
			Created with Pixso.
	</desc>
	<defs/>
	<rect id="SOTM Circle" rx="-0.498898" width="239.002197" height="239.002197" transform="translate(0.498898 62.615475) rotate(-15.000000)" fill="#FFFFFF" fill-opacity="0"/>
	<path id="Vector" d="M254.27 138.27C253.19 139.4 252.51 140.93 252.57 142.51C252.66 144.5 253.7 145.62 255.17 145.56C256.71 145.49 257.14 144.36 257.73 142.91L258.57 140.7C259.1 139.27 260.12 137.57 262.32 137.46C264.62 137.36 266.42 139.31 266.53 142.05C266.61 143.84 265.93 145.46 264.88 146.57L263.59 145.62C264.41 144.66 264.92 143.5 264.86 142.12C264.79 140.42 263.88 139.33 262.53 139.39C261.08 139.46 260.59 140.82 260.13 142.02L259.31 144.22C258.63 146 257.65 147.41 255.43 147.5C253.04 147.61 251.03 145.72 250.89 142.54C250.8 140.43 251.59 138.54 252.88 137.17L254.27 138.27Z" fill="#FFFFFF" fill-opacity="1.000000" fill-rule="nonzero"/>
	<path id="Vector" d="M264.21 158.65L264.69 154.1L266.3 154.27L265.13 165.29L263.52 165.12L264.01 160.56L250.59 159.13L250.79 157.23L264.21 158.65Z" fill="#FFFFFF" fill-opacity="1.000000" fill-rule="nonzero"/>
	<path id="Vector" d="M246.63 178.12L253.74 176.29L254.45 173.67L248.3 171.99L248.81 170.13L263.38 174.11L262.13 178.69C261.32 181.65 259.67 183.48 256.65 182.66C254.39 182.04 253.39 180.38 253.41 178.27L246.05 180.24L246.63 178.12ZM255.96 174.08L255.29 176.53C254.67 178.79 255.26 180.29 257.15 180.8C259.05 181.32 260.08 180.26 260.7 178L261.37 175.56L255.96 174.08Z" fill="#FFFFFF" fill-opacity="1.000000" fill-rule="nonzero"/>
	<path id="Vector" d="M245.05 194.58L247.31 189.56L243.71 186.34L244.52 184.56L256.18 195.43L255.29 197.4L239.42 195.84L240.26 193.99L245.05 194.58ZM246.65 194.77L249.05 195.07C250.8 195.28 252.51 195.51 254.31 195.8L254.35 195.71C252.95 194.55 251.64 193.43 250.32 192.26L248.52 190.64L246.65 194.77Z" fill="#FFFFFF" fill-opacity="1.000000" fill-rule="nonzero"/>
	<path id="Vector" d="M249.12 209.02L248.1 210.67L235.23 202.77L236.25 201.12L249.12 209.02Z" fill="#FFFFFF" fill-opacity="1.000000" fill-rule="nonzero"/>
	<path id="Vector" d="M242.47 219.11L241.21 220.64L230.4 218.84L226.94 218.12L226.88 218.19C228.11 219.08 229.53 220.04 230.76 221.05L236.78 226.01L235.63 227.41L223.96 217.82L225.22 216.3L236.02 218.12L239.47 218.83L239.53 218.76C238.3 217.86 236.97 216.95 235.74 215.95L229.63 210.93L230.79 209.53L242.47 219.11Z" fill="#FFFFFF" fill-opacity="1.000000" fill-rule="nonzero"/>
	<path id="Vector" d="M216.75 235.08C219.54 239.03 219.05 242.96 215.95 245.15C212.87 247.33 208.99 246.47 206.21 242.55C203.4 238.58 203.82 234.56 206.9 232.37C210 230.19 213.94 231.12 216.75 235.08ZM207.82 241.4C209.99 244.47 212.78 245.34 214.97 243.78C217.19 242.21 217.29 239.29 215.12 236.23C212.94 233.15 210.08 232.19 207.87 233.75C205.67 235.3 205.64 238.32 207.82 241.4Z" fill="#FFFFFF" fill-opacity="1.000000" fill-rule="nonzero"/>
	<path id="Vector" d="M202.14 253.35L194.28 257.16L193.59 255.7L199.69 252.74L197.46 248.14L192.28 250.66L191.58 249.2L196.75 246.69L193.8 240.6L195.53 239.76L202.14 253.35Z" fill="#FFFFFF" fill-opacity="1.000000" fill-rule="nonzero"/>
	<path id="Vector" d="M172.83 262.39L177.3 261.4L177.65 262.97L166.83 265.36L166.49 263.79L170.96 262.79L168.05 249.62L169.91 249.2L172.83 262.39Z" fill="#FFFFFF" fill-opacity="1.000000" fill-rule="nonzero"/>
	<path id="Vector" d="M157.82 266.57L155.89 266.67L155.56 260.34L148.55 260.69L148.87 267.02L146.97 267.12L146.21 252.03L148.11 251.93L148.47 259.04L155.48 258.69L155.13 251.58L157.06 251.49L157.82 266.57Z" fill="#FFFFFF" fill-opacity="1.000000" fill-rule="nonzero"/>
	<path id="Vector" d="M136.44 266.64L127.8 265.62L127.99 264.02L134.71 264.81L135.26 260.1L129.59 259.43L129.78 257.81L135.46 258.48L136.1 253.04L129.14 252.21L129.34 250.59L138.21 251.64L136.44 266.64Z" fill="#FFFFFF" fill-opacity="1.000000" fill-rule="nonzero"/>
	<path id="Vector" d="M108.25 260.9L106.13 260.06L106.4 251.45L106.52 248.18L106.44 248.15L104.32 250.63L98.64 257.1L96.53 256.27L102.1 242.23L103.79 242.9L100.72 250.64C100.23 251.87 99.42 253.48 98.85 254.69L98.93 254.72L101.28 252.04L106.88 245.76L107.91 246.17L107.69 254.58L107.56 258.15L107.64 258.18C108.05 256.91 108.59 255.18 109.08 253.94L112.14 246.21L113.79 246.86L108.25 260.9Z" fill="#FFFFFF" fill-opacity="1.000000" fill-rule="nonzero"/>
	<path id="Vector" d="M91.7 245.44C89.11 249.52 85.28 250.57 82.08 248.52C78.89 246.5 78.22 242.59 80.79 238.52C83.39 234.41 87.28 233.28 90.47 235.31C93.67 237.35 94.3 241.35 91.7 245.44ZM82.47 239.59C80.46 242.76 80.71 245.67 82.98 247.11C85.27 248.57 88.02 247.55 90.03 244.39C92.06 241.2 91.86 238.19 89.57 236.73C87.29 235.29 84.48 236.39 82.47 239.59Z" fill="#FFFFFF" fill-opacity="1.000000" fill-rule="nonzero"/>
	<path id="Vector" d="M69.09 238.81L67.63 237.47L70.04 226.78L70.96 223.37L70.89 223.31C69.93 224.49 68.9 225.85 67.82 227.02L62.52 232.75L61.19 231.52L71.43 220.42L72.88 221.76L70.45 232.45L69.54 235.84L69.61 235.91C70.57 234.73 71.56 233.45 72.64 232.29L77.99 226.48L79.32 227.71L69.09 238.81Z" fill="#FFFFFF" fill-opacity="1.000000" fill-rule="nonzero"/>
	<path id="Vector" d="M53.48 220.2L56.28 223.83L55 224.81L48.23 216.05L49.5 215.07L52.3 218.7L62.98 210.43L64.15 211.95L53.48 220.2Z" fill="#FFFFFF" fill-opacity="1.000000" fill-rule="nonzero"/>
	<path id="Vector" d="M43.28 208.4L42.37 206.69L47.95 203.7L44.65 197.51L39.07 200.49L38.17 198.81L51.49 191.7L52.39 193.39L46.11 196.74L49.41 202.94L55.69 199.6L56.6 201.31L43.28 208.4Z" fill="#FFFFFF" fill-opacity="1.000000" fill-rule="nonzero"/>
	<path id="Vector" d="M40.17 178.39C38.58 178.85 37.17 178.01 36.79 176.68C36.41 175.35 37.17 173.89 38.76 173.43C40.35 172.97 41.75 173.82 42.12 175.16C42.5 176.48 41.76 177.94 40.17 178.39Z" fill="#FFFFFF" fill-opacity="1.000000" fill-rule="nonzero"/>
	<path id="Vector" d="M38.7 156.12C39.78 154.98 40.46 153.45 40.39 151.86C40.29 149.88 39.25 148.76 37.77 148.82C36.23 148.89 35.8 150.02 35.22 151.48L34.38 153.69C33.84 155.12 32.84 156.83 30.64 156.93C28.33 157.04 26.54 155.1 26.41 152.36C26.32 150.57 27.01 148.95 28.07 147.84L29.36 148.79C28.53 149.76 28.02 150.91 28.1 152.29C28.18 154 29.08 155.09 30.44 155.02C31.89 154.95 32.38 153.59 32.82 152.4L33.64 150.2C34.32 148.42 35.28 147.01 37.52 146.9C39.9 146.78 41.91 148.67 42.07 151.85C42.17 153.97 41.38 155.84 40.09 157.22L38.7 156.12Z" fill="#FFFFFF" fill-opacity="1.000000" fill-rule="nonzero"/>
	<path id="Vector" d="M28.72 135.74L28.25 140.3L26.64 140.13L27.79 129.12L29.4 129.29L28.93 133.85L42.34 135.25L42.15 137.15L28.72 135.74Z" fill="#FFFFFF" fill-opacity="1.000000" fill-rule="nonzero"/>
	<path id="Vector" d="M46.28 116.21L39.17 118.06L38.46 120.68L44.61 122.34L44.1 124.2L29.53 120.25L30.77 115.67C31.57 112.72 33.22 110.87 36.25 111.69C38.51 112.31 39.52 113.97 39.49 116.08L46.85 114.1L46.28 116.21ZM36.95 120.27L37.62 117.83C38.23 115.57 37.64 114.07 35.75 113.56C33.85 113.04 32.82 114.1 32.2 116.36L31.53 118.8L36.95 120.27Z" fill="#FFFFFF" fill-opacity="1.000000" fill-rule="nonzero"/>
	<path id="Vector" d="M47.83 99.79L45.57 104.81L49.16 108.01L48.36 109.8L36.69 98.94L37.58 96.97L53.44 98.5L52.61 100.34L47.83 99.79ZM46.23 99.6L43.83 99.3C42.08 99.1 40.37 98.85 38.58 98.58L38.54 98.66C39.93 99.82 41.25 100.94 42.56 102.11L44.36 103.72L46.23 99.6Z" fill="#FFFFFF" fill-opacity="1.000000" fill-rule="nonzero"/>
	<path id="Vector" d="M43.72 85.36L44.74 83.71L57.62 91.59L56.62 93.24L43.72 85.36Z" fill="#FFFFFF" fill-opacity="1.000000" fill-rule="nonzero"/>
	<path id="Vector" d="M50.38 75.23L51.63 73.7L62.44 75.47L65.89 76.19L65.96 76.12C64.73 75.23 63.3 74.27 62.07 73.27L56.04 68.32L57.19 66.92L68.87 76.48L67.62 78.02L56.81 76.21L53.37 75.52L53.3 75.58C54.53 76.47 55.87 77.39 57.11 78.4L63.22 83.39L62.06 84.8L50.38 75.23Z" fill="#FFFFFF" fill-opacity="1.000000" fill-rule="nonzero"/>
	<path id="Vector" d="M76.08 59.21C73.27 55.28 73.75 51.35 76.85 49.14C79.93 46.95 83.81 47.8 86.6 51.73C89.41 55.68 89 59.71 85.92 61.9C82.83 64.1 78.89 63.17 76.08 59.21ZM84.98 52.87C82.81 49.82 80.02 48.94 77.82 50.51C75.61 52.09 75.52 55.01 77.69 58.07C79.88 61.15 82.74 62.11 84.95 60.53C87.14 58.97 87.17 55.95 84.98 52.87Z" fill="#FFFFFF" fill-opacity="1.000000" fill-rule="nonzero"/>
	<path id="Vector" d="M90.64 40.93L98.49 37.12L99.2 38.57L93.09 41.54L95.33 46.13L100.51 43.62L101.22 45.07L96.04 47.59L99 53.67L97.26 54.52L90.64 40.93Z" fill="#FFFFFF" fill-opacity="1.000000" fill-rule="nonzero"/>
	<path id="Vector" d="M119.93 31.85L115.45 32.84L115.1 31.27L125.91 28.87L126.26 30.44L121.79 31.43L124.72 44.6L122.86 45.02L119.93 31.85Z" fill="#FFFFFF" fill-opacity="1.000000" fill-rule="nonzero"/>
	<path id="Vector" d="M134.93 27.64L136.87 27.53L137.2 33.86L144.21 33.5L143.88 27.17L145.78 27.08L146.57 42.15L144.67 42.25L144.3 35.15L137.29 35.51L137.65 42.61L135.72 42.72L134.93 27.64Z" fill="#FFFFFF" fill-opacity="1.000000" fill-rule="nonzero"/>
	<path id="Vector" d="M156.31 27.53L164.96 28.53L164.77 30.13L158.05 29.35L157.5 34.06L163.17 34.72L162.99 36.34L157.32 35.68L156.69 41.13L163.64 41.93L163.45 43.55L154.58 42.52L156.31 27.53Z" fill="#FFFFFF" fill-opacity="1.000000" fill-rule="nonzero"/>
	<path id="Vector" d="M184.54 33.24L186.65 34.08L186.4 42.69L186.27 45.96L186.35 45.99L188.47 43.51L194.14 37.04L196.24 37.87L190.7 51.92L189.01 51.26L192.06 43.53C192.56 42.28 193.37 40.68 193.94 39.46L193.86 39.43L191.51 42.12L185.91 48.4L184.88 47.99L185.08 39.58L185.2 36.02L185.11 35.98C184.71 37.25 184.18 38.98 183.69 40.21L180.63 47.94L178.98 47.29L184.54 33.24Z" fill="#FFFFFF" fill-opacity="1.000000" fill-rule="nonzero"/>
	<path id="Vector" d="M201.07 48.65C203.65 44.56 207.47 43.51 210.68 45.54C213.87 47.56 214.55 51.48 211.98 55.54C209.39 59.65 205.51 60.79 202.31 58.78C199.11 56.75 198.48 52.75 201.07 48.65ZM210.31 54.48C212.32 51.31 212.06 48.4 209.79 46.96C207.49 45.51 204.76 46.53 202.74 49.7C200.73 52.9 200.92 55.9 203.22 57.35C205.5 58.79 208.3 57.68 210.31 54.48Z" fill="#FFFFFF" fill-opacity="1.000000" fill-rule="nonzero"/>
	<path id="Vector" d="M223.72 55.26L225.18 56.61L222.79 67.3L221.87 70.7L221.94 70.77C222.9 69.59 223.93 68.23 225.01 67.05L230.3 61.31L231.64 62.54L221.42 73.65L219.97 72.31L222.39 61.62L223.29 58.23L223.22 58.16C222.26 59.34 221.27 60.63 220.2 61.79L214.85 67.61L213.51 66.37L223.72 55.26Z" fill="#FFFFFF" fill-opacity="1.000000" fill-rule="nonzero"/>
	<path id="Vector" d="M239.35 73.83L236.54 70.21L237.81 69.22L244.61 77.97L243.34 78.96L240.53 75.34L229.88 83.62L228.71 82.11L239.35 73.83Z" fill="#FFFFFF" fill-opacity="1.000000" fill-rule="nonzero"/>
	<path id="Vector" d="M249.55 85.6L250.46 87.31L244.88 90.3L248.2 96.49L253.78 93.49L254.69 95.17L241.38 102.3L240.48 100.62L246.74 97.26L243.42 91.07L237.15 94.44L236.24 92.73L249.55 85.6Z" fill="#FFFFFF" fill-opacity="1.000000" fill-rule="nonzero"/>
	<path id="Vector" d="M252.71 115.55C254.3 115.09 255.71 115.93 256.09 117.26C256.47 118.59 255.71 120.05 254.12 120.51C252.53 120.97 251.13 120.12 250.76 118.79C250.39 117.46 251.12 116.01 252.71 115.55Z" fill="#FFFFFF" fill-opacity="1.000000" fill-rule="nonzero"/>
	<path id="Ellipse 4" d="M145.84 150.94Q145.22 152.05 144.77 152.76Q144.14 153.75 143.52 154.46Q142.79 155.31 142 155.87Q141.09 156.5 140.07 156.78Q138.55 157.18 137 156.97Q135.51 156.75 134.2 156Q132.89 155.23 131.96 154.04Q131 152.81 130.59 151.28Q130.18 149.76 130.4 148.21Q130.6 146.71 131.36 145.4Q132.11 144.08 133.3 143.15Q134.53 142.19 136.06 141.78Q137.19 141.48 138.47 141.66Q139.57 141.81 140.86 142.33Q141.91 142.76 143.26 143.5Q144.06 143.95 145.73 144.95Q146.92 145.66 147.53 146.01Q148.12 146.35 149.25 147.02Q150.91 148.01 151.7 148.44Q152.98 149.14 153.93 149.53Q155.01 149.98 155.86 150.11Q156.74 150.24 157.45 150.05Q158.51 149.77 159.4 149.09Q160.29 148.42 160.87 147.47Q161.47 146.49 161.64 145.38Q161.82 144.2 161.5 143Q161.18 141.8 160.44 140.87Q159.74 139.99 158.75 139.45Q157.78 138.92 156.68 138.79Q155.56 138.65 154.48 138.94Q153.16 139.3 151.89 140.75Q151.35 141.38 150.8 142.23Q150.37 142.89 149.87 143.81L148.12 142.84Q148.66 141.86 149.12 141.14Q149.75 140.17 150.38 139.45Q152.05 137.53 153.96 137.01Q155.42 136.62 156.92 136.8Q158.41 136.98 159.71 137.7Q161.06 138.43 162 139.62Q163 140.88 163.43 142.48Q163.86 144.09 163.62 145.69Q163.38 147.19 162.58 148.51Q161.8 149.78 160.61 150.68Q159.4 151.6 157.97 151.98Q156.86 152.28 155.57 152.09Q154.47 151.92 153.17 151.39Q152.11 150.95 150.74 150.19Q149.92 149.74 148.23 148.74Q147.11 148.07 146.53 147.74Q145.91 147.38 144.71 146.66Q143.07 145.68 142.29 145.26Q141.04 144.57 140.11 144.19Q139.05 143.76 138.2 143.64Q137.32 143.52 136.57 143.72Q135.45 144.02 134.53 144.73Q133.65 145.42 133.09 146.39Q132.53 147.37 132.38 148.48Q132.22 149.63 132.52 150.76Q132.83 151.9 133.54 152.81Q134.23 153.7 135.2 154.26Q136.17 154.83 137.28 154.98Q138.43 155.14 139.55 154.84Q140.23 154.66 140.85 154.23Q141.44 153.82 142.01 153.15Q142.53 152.55 143.08 151.69Q143.51 151.02 144.1 149.96L145.84 150.94ZM149.86 143.78L149.87 143.81C149.59 144.3 149 144.47 148.51 144.2C148.02 143.93 147.84 143.33 148.12 142.84L148.14 142.83L149.86 143.78ZM144.11 149.99L144.1 149.96C144.37 149.47 144.97 149.31 145.46 149.58C145.95 149.85 146.12 150.45 145.84 150.94L145.82 150.95L144.11 149.99Z" fill="#FFFFFF" fill-opacity="1.000000" fill-rule="evenodd"/>
</svg>
